<?xml version="1.0" encoding="UTF-8"?>
<svg xmlns="http://www.w3.org/2000/svg" viewBox="0 0 2014.83 1116.16">
  <defs>
    <style>
      .cls-1 {
        font-family: Gotham-Bold, Gotham;
        font-size: 286.7px;
        font-weight: 700;
        letter-spacing: .5em;
      }

      .cls-1, .cls-2 {
        fill: #fff;
      }
    </style>
  </defs>
  <g id="Camada_1" data-name="Camada 1">
    <circle class="cls-2" cx="1011.3" cy="530.34" r="15.96"/>
    <path class="cls-2" d="M1232.28,373.15c13.17,19.15-16.57,53.71-28.51,68.1-38.3,44.23-84.95,79.27-132.46,112.77-37.13,26.7-75.91,54.14-114.76,78.07-29.78,18.39-59.87,35.71-92.3,49.54-18.19,7.33-52.1,21.04-70.17,10.17-38.68-26.79,52.1-106.75,73.26-125.35,35.06-30.45,73.81-56.35,111.66-83.05,35.64-25.11,221.52-151.97,253.28-110.25h0ZM1221.43,380.81c-8.91-9.27-46.55,4.27-58.07,8.61-84.62,34.19-163.77,84.89-233.55,143.65-25.88,22.5-51.34,45.59-75.45,69.94-13.55,13.99-52.35,54.25-51.49,72.34.22.81.18.8.83,1.35.32.26.97.53,1.68.8,6.65,1.74,14.02.56,21.3-.83,32.87-7.32,64.06-22.1,94.43-37.08,51.04-25.98,100.22-56.58,145.83-91.47,36-28.4,69.98-59.4,102.69-91.47,12.69-12.71,58.42-59.28,51.81-75.86h0Z"/>
    <path class="cls-2" d="M1229.73,688.72c-13.94,18.6-56.19,1.46-73.64-5.26-64.78-26.31-121.08-69.13-177.3-109.8-41.3-30.01-201.66-147.55-191.02-198.38,13.03-45.21,117.8,15.27,142.19,29.37,40.05,23.49,76.97,51.94,114.37,79.27,35.18,25.75,214.78,161.36,185.39,204.79h0ZM1219,680.88c5.93-11.41-18.91-42.75-26.71-52.27-59.44-69.26-132.76-128.07-210.74-175.42-29.58-17.34-59.61-34.09-90.39-49.15-17.59-8.37-68.13-32.27-85-25.68-.7.47-.7.43-1.02,1.22-.14.39-.19,1.09-.22,1.85.47,6.86,3.95,13.47,7.59,19.92,17.44,28.8,41.41,53.64,65.3,77.63,40.93,40.07,85.63,76.9,133.27,108.96,38.41,25.04,78.64,47.34,119.48,68.09,16.1,7.96,74.84,36.41,88.43,24.86h0Z"/>
  </g>
  <g id="Camada_3" data-name="Camada 3">
    <text class="cls-1" transform="translate(99 630.66)"><tspan x="0" y="0">NE</tspan></text>
    <text class="cls-1" transform="translate(1342.87 630.66)"><tspan x="0" y="0">US</tspan></text>
  </g>
</svg>