<?xml version="1.0" encoding="UTF-8"?>
<svg id="Camada_1" data-name="Camada 1" xmlns="http://www.w3.org/2000/svg" viewBox="0 0 1075.87 259.9">
  <defs>
    <style>
      .cls-1 {
        font-family: Gotham-Bold, Gotham;
        font-size: 161px;
        font-weight: 700;
        letter-spacing: .5em;
      }

      .cls-1, .cls-2 {
        fill: #fff;
      }
    </style>
  </defs>
  <text class="cls-1" transform="translate(0 156.73)"><tspan x="0" y="0">NE</tspan></text>
  <text class="cls-1" transform="translate(698.52 156.73)"><tspan x="0" y="0">US</tspan></text>
  <circle class="cls-2" cx="512.32" cy="100.39" r="8.96"/>
  <path class="cls-2" d="M638.8,10.44c8.68,12.75-8.33,32.53-16.02,41.98-17.38,20.11-37.77,36.77-59.64,51.5-31.39,19.71-142.75,109.73-174.9,90.45-26.23-18.58,26.21-64.08,40.72-76.5,14.47-12.38,32.16-23.74,47.99-34.36,16.2-10.95,32.12-22.27,48.64-32.75,18.77-11.63,96.67-63.35,113.21-40.33h0ZM627.94,18.1c-2.76-1.15-7.69-.42-11.6.34-18.26,4.08-35.65,12.37-52.56,20.75-28.47,14.69-55.99,31.96-81.03,52.11-14.81,12.26-28.54,26.04-42.31,39.28-13.38,13.14-26.56,26.21-36.99,41.54-1.97,3.02-3.66,5.99-4.24,8.88,0,.12-.02.16-.07-.07-.03-.45-.88-1.53-1.3-1.66-.21-.09-.16-.04-.04.03.34.15,1.23.33,2.3.38,8.3,0,16.95-2.83,25.24-5.57,11.81-4.05,23.57-9.12,35.11-14.63,34.5-16.83,68.26-37.01,96.85-62.96,9.54-8.67,18.79-17.61,28.06-26.38,13.48-13.09,27.45-26.14,37.92-41.51,2.16-3.49,4.36-6.96,4.55-10.65-.01-.05.03.04.12.13h0Z"/>
  <path class="cls-2" d="M637.33,191.05c-9.31,12.3-33.48,2.5-44.9-1.77-24.61-10.05-46.91-24.04-67.86-40.06-28.68-23.41-149.62-100.27-141.59-136.84,9.23-30.79,69.1,4.37,85.5,14.15,16.35,9.76,32.77,22.89,47.89,34.5,15.55,11.86,31.36,23.32,46.57,35.63,17.02,14.07,90.92,71.36,74.39,94.4h0ZM626.6,183.21c.21-2.98-2.06-7.42-4.03-10.88-9.7-16-23.11-29.83-36.46-43.18-23.01-22.28-48.18-42.84-75.27-60.13-16.35-10.12-33.8-18.72-50.74-27.54-16.73-8.48-33.32-16.79-51.18-21.78-3.49-.9-6.85-1.56-9.77-1.18-.11.03-.16.03.04-.09.42-.17,1.17-1.32,1.16-1.76.02-.22,0-.16-.04-.03-.03.37.08,1.27.38,2.3,2.65,7.86,8.1,15.16,13.34,22.13,7.61,9.9,16.17,19.42,25.08,28.6,26.97,27.32,56.88,52.85,90.6,71.66,11.27,6.27,22.69,12.18,33.97,18.16,16.71,8.6,33.55,17.66,51.45,22.67,4,.93,7.99,1.91,11.54.91.04-.03-.03.04-.08.15h0Z"/>
</svg>